<svg xmlns="http://www.w3.org/2000/svg" width="164" height="50" viewBox="0 0 164 50" fill="none"><path d="M54.4378 8.55823H59.9008C60.6222 8.55823 61.2867 8.63973 61.8894 8.80275C62.4922 8.96576 63.0095 9.1959 63.4462 9.48836C63.8781 9.78562 64.2151 10.1404 64.4524 10.5527C64.6897 10.9651 64.8084 11.4206 64.8084 11.9192C64.8084 12.298 64.7704 12.6336 64.6945 12.9308C64.6185 13.2281 64.4856 13.5014 64.2958 13.7507C64.1059 14.0048 63.8496 14.2397 63.5316 14.4651C63.2136 14.6904 62.8149 14.9206 62.3308 15.1507V15.1938C62.8149 15.2706 63.2516 15.4 63.6408 15.587C64.03 15.774 64.3622 16.0089 64.6375 16.2966C64.9128 16.5843 65.1264 16.9151 65.2782 17.2986C65.4301 17.6822 65.5013 18.0993 65.5013 18.5548C65.5013 19.0726 65.3922 19.5569 65.1691 20.0075C64.946 20.4582 64.628 20.8514 64.2151 21.187C63.8022 21.5226 63.3038 21.7863 62.72 21.9781C62.1362 22.1699 61.4813 22.2658 60.7598 22.2658H54.4283V8.55823H54.4378ZM56.7208 14.7288H59.6255C60.0811 14.7288 60.4893 14.6617 60.8453 14.5322C61.2012 14.4027 61.5002 14.2206 61.747 13.9904C61.9938 13.7603 62.179 13.4822 62.3024 13.1658C62.4305 12.8445 62.4922 12.4993 62.4922 12.1254C62.4922 11.7274 62.4163 11.363 62.2691 11.037C62.1172 10.711 61.8847 10.4281 61.5667 10.1932C61.2487 9.95823 60.8453 9.78083 60.3611 9.65617C59.877 9.53151 59.2885 9.46919 58.605 9.46919H56.7208V14.7288ZM56.7208 21.2637H59.1888C59.8485 21.2637 60.4228 21.2014 60.9117 21.0719C61.4006 20.9425 61.804 20.7651 62.1173 20.5349C62.4353 20.3048 62.6678 20.0267 62.8244 19.7007C62.9763 19.3747 63.0523 19.0247 63.0523 18.6363C63.0523 18.2048 62.9858 17.7973 62.8482 17.4281C62.7105 17.0541 62.4875 16.7329 62.1789 16.4596C61.8704 16.1863 61.4623 15.9706 60.9639 15.8123C60.4608 15.6541 59.8485 15.5726 59.1176 15.5726H56.7255V21.2637H56.7208Z" fill="#004187"></path><path d="M72.3453 8.25137L78.729 22.2658H76.4081L74.3435 17.6966H68.5199L66.3841 22.2658H65.2402L71.7805 8.25137H72.3453ZM68.9138 16.8096H73.9164L71.4483 11.3822L68.9138 16.8096Z" fill="#004187"></path><path d="M79.3556 8.55823H80.6323L89.522 18.5836H89.6264V8.55823H90.6279V22.5822H90.0963L80.4662 11.4397H80.3855V22.261H79.3508V8.55823H79.3556Z" fill="#004187"></path><path d="M95.2033 15.4671C95.2033 16.426 95.3457 17.2842 95.6352 18.0466C95.92 18.8089 96.3139 19.4514 96.817 19.9788C97.3201 20.5062 97.9086 20.9089 98.5921 21.187C99.2755 21.4651 100.016 21.6041 100.813 21.6041C101.293 21.6041 101.753 21.513 102.194 21.326C102.636 21.139 103.049 20.8993 103.429 20.5973C103.808 20.2952 104.145 19.9596 104.444 19.5856C104.743 19.2116 104.99 18.8281 105.18 18.4445L106.143 19.063C105.863 19.5233 105.531 19.9692 105.151 20.3911C104.767 20.813 104.326 21.1918 103.827 21.5178C103.324 21.8438 102.759 22.1027 102.128 22.2993C101.497 22.4959 100.794 22.587 100.016 22.587C98.8911 22.587 97.8707 22.4 96.9499 22.0164C96.0339 21.6377 95.246 21.1247 94.591 20.4774C93.936 19.8301 93.4282 19.0726 93.0722 18.2096C92.7162 17.3466 92.5359 16.4308 92.5359 15.4671C92.5359 14.8247 92.6166 14.2014 92.7827 13.5925C92.9488 12.9836 93.1814 12.4082 93.4946 11.876C93.8031 11.3438 94.1828 10.8548 94.629 10.4089C95.0751 9.96301 95.5782 9.58425 96.143 9.26301C96.7078 8.94178 97.3201 8.69247 97.9893 8.51986C98.6585 8.34247 99.3705 8.25616 100.13 8.25616C100.851 8.25616 101.521 8.35206 102.128 8.54863C102.74 8.74521 103.296 9.00411 103.794 9.33014C104.297 9.65616 104.743 10.0301 105.132 10.4521C105.526 10.874 105.859 11.3199 106.139 11.7801L105.147 12.4418C104.582 11.3342 103.946 10.5192 103.243 10.0062C102.541 9.49315 101.734 9.23425 100.818 9.23425C100.035 9.23425 99.2993 9.37808 98.6158 9.67055C97.9324 9.95822 97.3391 10.3753 96.8312 10.9123C96.3234 11.4493 95.9247 12.1014 95.6352 12.8685C95.3504 13.6356 95.2033 14.4986 95.2033 15.4671Z" fill="#004187"></path><path d="M114.933 22.587C113.884 22.587 112.902 22.4 111.991 22.0164C111.079 21.6377 110.287 21.1199 109.618 20.463C108.944 19.8062 108.417 19.0391 108.032 18.1569C107.648 17.2795 107.453 16.3397 107.453 15.3425C107.453 14.6856 107.539 14.0575 107.714 13.4486C107.89 12.8445 108.137 12.2788 108.455 11.7514C108.773 11.2288 109.162 10.7493 109.618 10.3178C110.073 9.88631 110.576 9.51713 111.127 9.21028C111.677 8.90343 112.275 8.66371 112.916 8.4959C113.557 8.32809 114.231 8.24179 114.933 8.24179C115.636 8.24179 116.31 8.32809 116.95 8.4959C117.591 8.66371 118.189 8.90343 118.745 9.21028C119.3 9.51713 119.803 9.88631 120.254 10.3178C120.705 10.7493 121.089 11.224 121.417 11.7514C121.739 12.274 121.991 12.8397 122.162 13.4486C122.337 14.0575 122.423 14.6856 122.423 15.3425C122.423 16.0041 122.337 16.6418 122.162 17.2603C121.986 17.8788 121.739 18.4541 121.417 18.9911C121.094 19.5281 120.705 20.0171 120.254 20.4582C119.803 20.8993 119.3 21.2781 118.745 21.5945C118.189 21.911 117.591 22.1555 116.95 22.3281C116.31 22.5007 115.636 22.587 114.933 22.587ZM114.933 21.9062C115.712 21.9062 116.4 21.7432 116.993 21.4171C117.591 21.0911 118.094 20.6356 118.502 20.0459C118.911 19.461 119.219 18.7658 119.428 17.9699C119.637 17.1692 119.741 16.2966 119.741 15.3425C119.741 14.398 119.637 13.5349 119.428 12.7486C119.219 11.9623 118.911 11.2863 118.502 10.7158C118.094 10.1452 117.591 9.70412 116.993 9.39248C116.395 9.08083 115.707 8.92261 114.933 8.92261C114.141 8.92261 113.448 9.08083 112.85 9.39248C112.252 9.70412 111.753 10.1452 111.345 10.7158C110.937 11.2863 110.633 11.9623 110.429 12.7486C110.225 13.5349 110.121 14.398 110.121 15.3425C110.121 16.2918 110.225 17.1692 110.429 17.9699C110.633 18.7706 110.937 19.461 111.345 20.0459C111.753 20.6308 112.252 21.0863 112.85 21.4171C113.448 21.7432 114.141 21.9062 114.933 21.9062Z" fill="#004187"></path><path d="M56.5832 33.0534C56.5832 34.0123 56.7255 34.8705 57.0151 35.6329C57.2998 36.3952 57.6938 37.0377 58.1969 37.5651C58.7 38.0925 59.2885 38.4952 59.972 38.7733C60.6554 39.0514 61.3958 39.1904 62.1932 39.1904C62.6726 39.1904 63.133 39.0993 63.5744 38.9123C64.0158 38.7253 64.4287 38.4856 64.8084 38.1836C65.1881 37.8815 65.5251 37.5459 65.8241 37.1719C66.1231 36.7979 66.3699 36.4144 66.5597 36.0308L67.5232 36.6493C67.2432 37.1096 66.911 37.5555 66.5313 37.9774C66.1468 38.3993 65.7054 38.7781 65.2071 39.1041C64.704 39.4301 64.1392 39.689 63.5079 39.8856C62.8767 40.0822 62.1742 40.1733 61.3958 40.1733C60.271 40.1733 59.2505 39.9863 58.3298 39.6027C57.4137 39.224 56.6259 38.711 55.9709 38.0637C55.3159 37.4164 54.8081 36.6589 54.4521 35.7959C54.0961 34.9329 53.9158 34.0171 53.9158 33.0534C53.9158 32.411 53.9965 31.7877 54.1626 31.1788C54.3287 30.5699 54.5613 29.9945 54.8745 29.4623C55.183 28.9301 55.5627 28.4411 56.0089 27.9952C56.455 27.5493 56.9581 27.1705 57.5229 26.8493C58.0877 26.5281 58.7 26.2788 59.3692 26.1062C60.0384 25.9288 60.7504 25.8425 61.5098 25.8425C62.2312 25.8425 62.9004 25.9384 63.5079 26.1349C64.1202 26.3315 64.6755 26.5904 65.1738 26.9164C65.677 27.2425 66.1231 27.6164 66.5123 28.0384C66.9062 28.4603 67.2385 28.9062 67.5185 29.3664L66.5265 30.0281C65.9617 28.9206 65.3257 28.1055 64.6233 27.5925C63.9208 27.0795 63.114 26.8205 62.198 26.8205C61.4148 26.8205 60.6792 26.9644 59.9957 27.2569C59.3122 27.5445 58.719 27.9616 58.2111 28.4986C57.7033 29.0356 57.3046 29.6877 57.0151 30.4548C56.7303 31.2219 56.5832 32.0897 56.5832 33.0534Z" fill="#004187"></path><path d="M69.4359 26.1493H74.1442C74.9558 26.1493 75.6677 26.2356 76.2847 26.413C76.897 26.5904 77.4096 26.8349 77.8178 27.1514C78.226 27.4678 78.5345 27.8466 78.7433 28.2829C78.9521 28.7192 79.0565 29.1986 79.0565 29.7164C79.0565 30.1432 78.9759 30.5411 78.8145 30.9151C78.6531 31.2891 78.43 31.6247 78.1405 31.9219C77.851 32.2192 77.4998 32.4781 77.0916 32.6986C76.6834 32.9144 76.2325 33.087 75.7389 33.2116L80.6798 39.8569H78.0314L73.3136 33.4178H71.7189V39.8569H69.4359V26.1493ZM71.7189 32.7226H73.0383C73.5509 32.7226 74.0208 32.6555 74.4574 32.5164C74.8893 32.3774 75.2643 32.1856 75.5823 31.9315C75.9003 31.6774 76.1471 31.3754 76.3227 31.0158C76.4983 30.6562 76.5885 30.2534 76.5885 29.8075C76.5885 29.3952 76.5173 29.0164 76.3797 28.6712C76.242 28.326 76.0427 28.0336 75.7864 27.789C75.5301 27.5445 75.2263 27.3527 74.8751 27.2137C74.5239 27.0747 74.1394 27.0075 73.7218 27.0075H71.7189V32.7226Z" fill="#004187"></path><path d="M90.7134 26.1493V27.0363H83.5608V31.9363H88.3497V32.8233H83.5608V38.9651H90.7134V39.8521H81.2778V26.1493H90.7134Z" fill="#004187"></path><path d="M92.1372 26.1493H96.6604C98.051 26.1493 99.2471 26.2788 100.253 26.5425C101.255 26.8062 102.09 27.2233 102.759 27.8034C103.523 28.4651 104.098 29.2226 104.482 30.076C104.867 30.9295 105.061 31.8644 105.061 32.876C105.061 33.8397 104.89 34.7459 104.544 35.5945C104.197 36.4432 103.694 37.1815 103.03 37.8096C102.365 38.4377 101.544 38.9363 100.562 39.3055C99.584 39.6699 98.4639 39.8521 97.2014 39.8521H92.1372V26.1493ZM94.4154 38.85H96.8407C97.6049 38.85 98.3263 38.7206 99.0003 38.4664C99.6742 38.2123 100.263 37.8336 100.766 37.3301C101.269 36.8267 101.663 36.2082 101.952 35.4747C102.242 34.7411 102.389 33.8925 102.389 32.9288C102.389 32.0801 102.251 31.3034 101.981 30.5986C101.706 29.8938 101.326 29.2849 100.837 28.7719C100.343 28.2637 99.7597 27.8658 99.0809 27.5829C98.4022 27.3 97.6618 27.161 96.855 27.161H94.4201V38.85H94.4154Z" fill="#004187"></path><path d="M106.87 26.1493H109.152V39.8569H106.87V26.1493Z" fill="#004187"></path><path d="M113.737 33.0534C113.737 34.0123 113.88 34.8705 114.169 35.6329C114.454 36.3952 114.848 37.0377 115.351 37.5651C115.854 38.0925 116.443 38.4952 117.126 38.7733C117.81 39.0514 118.55 39.1904 119.347 39.1904C119.827 39.1904 120.287 39.0993 120.729 38.9123C121.17 38.7253 121.583 38.4856 121.963 38.1836C122.342 37.8815 122.679 37.5459 122.978 37.1719C123.277 36.7979 123.524 36.4144 123.714 36.0308L124.677 36.6493C124.397 37.1096 124.065 37.5555 123.685 37.9774C123.301 38.3993 122.86 38.7781 122.361 39.1041C121.858 39.4301 121.293 39.689 120.662 39.8856C120.031 40.0822 119.328 40.1733 118.55 40.1733C117.425 40.1733 116.405 39.9863 115.484 39.6027C114.568 39.224 113.78 38.711 113.125 38.0637C112.47 37.4164 111.962 36.6589 111.606 35.7959C111.25 34.9329 111.07 34.0171 111.07 33.0534C111.07 32.411 111.151 31.7877 111.317 31.1788C111.483 30.5699 111.715 29.9945 112.029 29.4623C112.337 28.9301 112.717 28.4411 113.163 27.9952C113.609 27.5493 114.112 27.1705 114.677 26.8493C115.242 26.5281 115.854 26.2788 116.523 26.1062C117.193 25.9288 117.905 25.8425 118.664 25.8425C119.385 25.8425 120.055 25.9384 120.662 26.1349C121.274 26.3315 121.83 26.5904 122.328 26.9164C122.831 27.2425 123.277 27.6164 123.666 28.0384C124.06 28.4603 124.393 28.9062 124.673 29.3664L123.681 30.0281C123.116 28.9206 122.48 28.1055 121.777 27.5925C121.075 27.0795 120.268 26.8205 119.352 26.8205C118.569 26.8205 117.833 26.9644 117.15 27.2569C116.466 27.5445 115.873 27.9616 115.365 28.4986C114.857 29.0356 114.459 29.6877 114.169 30.4548C113.884 31.2219 113.737 32.0897 113.737 33.0534Z" fill="#004187"></path><path d="M133.468 40.1733C132.419 40.1733 131.436 39.9863 130.525 39.6027C129.614 39.224 128.821 38.7062 128.152 38.0493C127.478 37.3925 126.951 36.6253 126.566 35.7432C126.182 34.8658 125.987 33.926 125.987 32.9288C125.987 32.2719 126.073 31.6438 126.248 31.0349C126.424 30.4308 126.671 29.8651 126.989 29.3377C127.307 28.8151 127.696 28.3356 128.152 27.9041C128.607 27.4726 129.11 27.1034 129.661 26.7966C130.212 26.4897 130.81 26.25 131.45 26.0822C132.091 25.9144 132.765 25.8281 133.468 25.8281C134.17 25.8281 134.844 25.9144 135.485 26.0822C136.125 26.25 136.723 26.4897 137.279 26.7966C137.834 27.1034 138.337 27.4726 138.788 27.9041C139.239 28.3356 139.623 28.8103 139.951 29.3377C140.274 29.8603 140.525 30.426 140.696 31.0349C140.872 31.6438 140.957 32.2719 140.957 32.9288C140.957 33.5904 140.872 34.2281 140.696 34.8466C140.52 35.4651 140.274 36.0404 139.951 36.5774C139.628 37.1144 139.239 37.6034 138.788 38.0445C138.337 38.4856 137.834 38.8644 137.279 39.1808C136.723 39.4973 136.125 39.7418 135.485 39.9144C134.839 40.087 134.17 40.1733 133.468 40.1733ZM133.468 39.4925C134.246 39.4925 134.934 39.3295 135.527 39.0034C136.125 38.6774 136.628 38.2219 137.037 37.6322C137.445 37.0473 137.753 36.3521 137.962 35.5562C138.171 34.7555 138.275 33.8829 138.275 32.9288C138.275 31.9843 138.171 31.1212 137.962 30.3349C137.753 29.5486 137.445 28.8726 137.037 28.3021C136.628 27.7315 136.125 27.2904 135.527 26.9788C134.929 26.6671 134.241 26.5089 133.468 26.5089C132.675 26.5089 131.982 26.6671 131.384 26.9788C130.786 27.2904 130.288 27.7315 129.879 28.3021C129.471 28.8726 129.167 29.5486 128.963 30.3349C128.759 31.1212 128.655 31.9843 128.655 32.9288C128.655 33.8781 128.759 34.7555 128.963 35.5562C129.167 36.3569 129.471 37.0473 129.879 37.6322C130.288 38.2171 130.786 38.6726 131.384 39.0034C131.982 39.3295 132.675 39.4925 133.468 39.4925Z" fill="#004187"></path><path d="M142.77 26.1493H147.478C148.29 26.1493 149.002 26.2356 149.619 26.413C150.231 26.5904 150.744 26.8349 151.152 27.1514C151.56 27.4678 151.869 27.8466 152.077 28.2829C152.286 28.7192 152.391 29.1986 152.391 29.7164C152.391 30.1432 152.31 30.5411 152.149 30.9151C151.987 31.2891 151.764 31.6247 151.475 31.9219C151.185 32.224 150.834 32.4781 150.426 32.6986C150.018 32.9144 149.567 33.087 149.073 33.2116L154.014 39.8569H151.365L146.648 33.4178H145.053V39.8569H142.77V26.1493ZM145.048 32.7226H146.368C146.88 32.7226 147.35 32.6555 147.787 32.5164C148.219 32.3774 148.594 32.1856 148.912 31.9315C149.23 31.6774 149.476 31.3754 149.652 31.0158C149.828 30.6562 149.918 30.2534 149.918 29.8075C149.918 29.3952 149.847 29.0164 149.709 28.6712C149.571 28.326 149.372 28.0336 149.116 27.789C148.859 27.5445 148.556 27.3527 148.204 27.2137C147.853 27.0747 147.469 27.0075 147.051 27.0075H145.043V32.7226H145.048Z" fill="#004187"></path><path d="M154.607 26.1493H158.903C159.61 26.1493 160.279 26.2356 160.896 26.4082C161.518 26.5808 162.059 26.8349 162.519 27.1658C162.98 27.5014 163.34 27.9089 163.606 28.3932C163.867 28.8774 164 29.4336 164 30.0617C164 30.6801 163.872 31.2219 163.616 31.6822C163.359 32.1425 163.022 32.526 162.605 32.8281C162.187 33.1301 161.708 33.3555 161.176 33.5041C160.644 33.6527 160.103 33.7247 159.548 33.7247C159.311 33.7247 159.059 33.7199 158.803 33.7103C158.542 33.7007 158.295 33.6863 158.058 33.6623C157.82 33.6432 157.597 33.6192 157.393 33.5904C157.189 33.5616 157.023 33.5329 156.89 33.5089V39.8425H154.607V26.1493ZM156.89 32.7418C157.151 32.8329 157.426 32.9048 157.721 32.9623C158.015 33.0199 158.314 33.0486 158.622 33.0486C159.116 33.0486 159.543 32.9767 159.913 32.8281C160.284 32.6795 160.587 32.4781 160.834 32.2192C161.081 31.9603 161.261 31.6582 161.38 31.3082C161.499 30.9582 161.56 30.589 161.56 30.1959C161.56 29.7356 161.48 29.3185 161.323 28.9445C161.166 28.5706 160.948 28.2541 160.673 27.9904C160.398 27.7267 160.075 27.5206 159.7 27.3767C159.33 27.2329 158.931 27.161 158.509 27.161H156.89V32.7418Z" fill="#004187"></path><path d="M15.1343 15.6972C15.1343 15.6972 7.77289 24.1116 15.1343 33.1109C15.1343 33.1109 23.2694 41.3287 32.5672 33.5041L41.8651 40.1589C41.8651 40.1589 29.8571 55.2233 12.2296 46.0274C12.2296 46.0274 -0.328934 38.5096 2.12487 26.4753C2.12487 26.4753 4.40781 16.4212 15.1343 15.6972Z" fill="#004187"></path><path d="M32.3385 15.6829L42.0588 8.25136C42.0588 8.25136 33.9333 -1.51028 20.9191 0.20136C20.9191 0.20136 5.97793 1.23218 0.994385 16.7808C0.999131 16.7808 17.1601 1.65889 32.3385 15.6829Z" fill="#808080"></path></svg>